<svg id="svg" version="1.1" xmlns="http://www.w3.org/2000/svg" xmlns:xlink="http://www.w3.org/1999/xlink" width="400" height="300" viewBox="0, 0, 400,300"><g id="svgg"><path id="path0" d="M0.000 150.000 L 0.000 300.000 200.000 300.000 L 400.000 300.000 400.000 150.000 L 400.000 0.000 200.000 0.000 L 0.000 0.000 0.000 150.000 M289.800 72.003 L 289.800 87.607 284.550 87.553 L 279.300 87.500 279.248 77.150 L 279.196 66.800 196.198 66.800 L 113.200 66.800 113.200 149.900 L 113.200 233.000 196.198 233.000 L 279.196 233.000 279.248 222.650 L 279.300 212.300 284.550 212.247 L 289.800 212.193 289.800 227.797 L 289.800 243.400 196.200 243.400 L 102.600 243.400 102.600 149.900 L 102.600 56.400 196.200 56.400 L 289.800 56.400 289.800 72.003 M170.600 116.200 L 170.600 140.400 200.000 140.400 L 229.400 140.400 229.400 116.200 L 229.400 92.000 238.800 92.000 L 248.200 92.000 248.200 149.900 L 248.200 207.800 238.800 207.800 L 229.400 207.800 229.400 182.300 L 229.400 156.800 200.000 156.800 L 170.600 156.800 170.600 182.300 L 170.600 207.800 161.200 207.800 L 151.800 207.800 151.800 149.900 L 151.800 92.000 161.200 92.000 L 170.600 92.000 170.600 116.200 " stroke="none" fill="#fcfcfc" fill-rule="evenodd"></path><path id="path1" d="M102.600 149.900 L 102.600 243.400 196.200 243.400 L 289.800 243.400 289.800 227.800 L 289.800 212.200 284.600 212.200 L 279.400 212.200 279.400 222.600 L 279.400 233.000 196.200 233.000 L 113.000 233.000 113.000 149.900 L 113.000 66.800 196.200 66.800 L 279.400 66.800 279.400 77.200 L 279.400 87.600 284.600 87.600 L 289.800 87.600 289.800 72.000 L 289.800 56.400 196.200 56.400 L 102.600 56.400 102.600 149.900 M151.800 149.900 L 151.800 207.800 161.100 207.800 L 170.400 207.800 170.400 182.200 L 170.400 156.600 200.000 156.600 L 229.600 156.600 229.600 182.200 L 229.600 207.800 238.900 207.800 L 248.200 207.800 248.200 149.900 L 248.200 92.000 238.900 92.000 L 229.600 92.000 229.600 116.200 L 229.600 140.400 200.000 140.400 L 170.400 140.400 170.400 116.200 L 170.400 92.000 161.100 92.000 L 151.800 92.000 151.800 149.900 " stroke="none" fill="#c40404" fill-rule="evenodd"></path><path id="path2" d="M113.099 149.900 C 113.099 195.660,113.122 214.350,113.150 191.434 C 113.178 168.517,113.178 131.077,113.150 108.234 C 113.122 85.390,113.099 104.140,113.099 149.900 M279.293 77.100 C 279.293 82.820,279.319 85.131,279.350 82.236 C 279.381 79.341,279.381 74.661,279.350 71.836 C 279.319 69.011,279.293 71.380,279.293 77.100 M170.497 116.200 C 170.497 129.565,170.521 135.032,170.550 128.350 C 170.579 121.667,170.579 110.732,170.550 104.050 C 170.521 97.367,170.497 102.835,170.497 116.200 M229.497 116.200 C 229.497 129.565,229.521 135.032,229.550 128.350 C 229.579 121.667,229.579 110.732,229.550 104.050 C 229.521 97.367,229.497 102.835,229.497 116.200 M170.449 182.250 L 170.498 207.900 170.550 182.350 L 170.602 156.800 200.000 156.800 L 229.398 156.800 229.450 182.350 L 229.502 207.900 229.551 182.250 L 229.600 156.600 200.000 156.600 L 170.400 156.600 170.449 182.250 M279.293 222.700 C 279.293 228.420,279.319 230.731,279.350 227.836 C 279.381 224.941,279.381 220.261,279.350 217.436 C 279.319 214.611,279.293 216.980,279.293 222.700 " stroke="none" fill="#f4cccc" fill-rule="evenodd"></path><path id="path3" d="" stroke="none" fill="#e0100e8" fill-rule="evenodd"></path><path id="path4" d="" stroke="none" fill="#e0100e8" fill-rule="evenodd"></path></g></svg>